<svg xmlns="http://www.w3.org/2000/svg" width="312" height="47" viewBox="0 0 312 47" fill="none"><g clip-path="url(#clip0_3_36)"><path d="M102.699 46.9822H95.9058V10.8968H102.611V13.0477C104.704 11.3945 107.293 10.5235 109.954 10.559C112.295 10.5235 114.601 11.1456 116.605 12.3544C118.574 13.5276 120.206 15.1808 121.341 17.1539C123.7 21.3491 123.683 26.4686 121.323 30.646C120.153 32.6191 118.485 34.2723 116.499 35.4278C114.441 36.6188 112.118 37.2232 109.741 37.1876C108.482 37.1876 107.222 37.0098 106.016 36.6721C104.845 36.3344 103.71 35.8188 102.681 35.1434V47L102.699 46.9822ZM108.854 16.3718C107.683 16.3718 106.513 16.5673 105.413 16.994C104.384 17.4028 103.444 18.0427 102.699 18.8604V28.9573C103.48 29.7216 104.402 30.326 105.413 30.7171C106.513 31.1793 107.666 31.3926 108.854 31.3926C111.55 31.4459 114.051 30.0238 115.417 27.7129C116.091 26.5575 116.428 25.2243 116.41 23.8733C116.428 22.5223 116.091 21.1891 115.417 20.0159C114.778 18.896 113.838 17.9539 112.721 17.3317C111.532 16.674 110.202 16.3362 108.854 16.354V16.3718ZM197.009 37.3298C194.774 37.3476 192.557 37.0454 190.41 36.4232C188.513 35.8722 186.721 34.9656 185.142 33.7568L188.513 29.2239C189.861 30.1305 191.297 30.8771 192.823 31.4637C194.135 31.9437 195.519 32.1925 196.92 32.2103C198.179 32.2636 199.439 31.997 200.574 31.4459C201.372 31.0904 201.904 30.3083 201.94 29.4372C201.957 28.8151 201.674 28.2107 201.177 27.8374C200.432 27.3574 199.598 27.0552 198.712 26.9841L193.745 26.2375C191.581 26.0064 189.541 25.1354 187.892 23.7133C186.561 22.3801 185.834 20.5492 185.905 18.6649C185.87 17.1006 186.331 15.5896 187.218 14.3098C188.176 13.0477 189.47 12.0522 190.943 11.4834C192.769 10.7723 194.721 10.4168 196.689 10.4701C198.57 10.4701 200.432 10.7368 202.223 11.2701C204.05 11.8033 205.771 12.621 207.314 13.7232L204.033 18.1494C202.773 17.3317 201.39 16.674 199.971 16.2118C198.694 15.8207 197.381 15.6074 196.051 15.6074C195.022 15.5541 193.993 15.803 193.107 16.3007C192.415 16.6562 191.989 17.3673 191.989 18.1494C191.971 18.7893 192.255 19.4115 192.769 19.7848C193.603 20.2825 194.543 20.567 195.501 20.6203L200.467 21.3669C202.631 21.5624 204.671 22.4334 206.339 23.8378C207.704 25.1176 208.449 26.913 208.378 28.7973C208.396 30.3971 207.864 31.9437 206.888 33.2058C205.824 34.539 204.441 35.5878 202.862 36.2455C201.017 37.0276 199.031 37.4009 197.026 37.3654L197.009 37.3298ZM139.894 37.3298C137.447 37.3654 135.034 36.7432 132.888 35.5344C130.848 34.379 129.146 32.7258 127.922 30.7171C126.698 28.6551 126.059 26.2909 126.095 23.8911C126.059 21.4913 126.698 19.1271 127.904 17.0473C127.904 17.0473 127.904 17.0295 127.904 17.0117V16.9762C129.855 17.7939 131.859 18.4516 133.917 18.9315L134.325 19.0382C134.077 19.3582 133.846 19.6959 133.651 20.0337C132.392 22.4334 132.392 25.2954 133.651 27.6774C134.254 28.7973 135.159 29.7216 136.241 30.3971C137.34 31.0549 138.582 31.4104 139.859 31.3926C141.154 31.4104 142.413 31.0726 143.513 30.3971C144.595 29.7216 145.482 28.7973 146.103 27.6774C147.397 25.2954 147.397 22.4157 146.103 20.0337C145.89 19.6604 145.659 19.3048 145.393 18.9849L145.641 18.9138C147.752 18.4338 149.81 17.7583 151.778 16.8873C151.778 16.8873 151.778 16.9051 151.796 16.9229L151.832 17.0117C154.244 21.2424 154.244 26.4331 151.832 30.6816C150.643 32.6903 148.94 34.3612 146.883 35.4989C144.737 36.7076 142.307 37.3298 139.841 37.2943L139.894 37.3298ZM76.4834 37.3298C74.6387 37.3654 72.8118 36.921 71.1977 36.0144C69.6723 35.1611 68.4129 33.899 67.5793 32.3525C66.6747 30.6993 66.2135 28.8506 66.249 26.9663V10.8968H73.0601V25.9887C72.9892 27.4641 73.5213 28.8862 74.5323 29.9705C75.5965 31.0015 77.0155 31.5348 78.4877 31.4637C79.552 31.4637 80.5985 31.2504 81.5386 30.7882C82.4432 30.3438 83.2059 29.6861 83.7912 28.8862V10.8968H90.6023V36.8321H83.7912V34.7523C81.7514 36.4943 79.1618 37.4009 76.4834 37.3298ZM48.4761 37.3298C46.0284 37.3654 43.5984 36.7432 41.4699 35.5344C39.4301 34.379 37.7096 32.7258 36.5034 30.7171C35.2618 28.6551 34.6233 26.2909 34.6587 23.8911C34.6233 21.4913 35.2618 19.1271 36.468 17.0473C37.6741 15.0208 39.3769 13.3499 41.4344 12.1944C45.8155 9.81241 51.1013 9.81241 55.4824 12.1944C57.5399 13.3499 59.2427 15.0208 60.4488 17.0473C62.8611 21.278 62.8611 26.4686 60.4488 30.7171C59.2427 32.7258 57.5399 34.3968 55.5001 35.5344C53.3539 36.7432 50.9239 37.3476 48.4584 37.3298H48.4761ZM48.4761 16.3362C47.1991 16.3362 45.9397 16.674 44.8577 17.3495C43.7757 18.0072 42.8889 18.9493 42.2681 20.0692C41.0087 22.469 41.0087 25.3309 42.2681 27.7129C42.8711 28.8328 43.758 29.775 44.8577 30.4327C47.0926 31.7659 49.8951 31.7659 52.13 30.4327C53.212 29.7572 54.0989 28.8328 54.7197 27.7129C55.9968 25.3309 55.9968 22.4512 54.7197 20.0692C54.0989 18.9671 53.212 18.0427 52.13 17.3495C51.0303 16.674 49.771 16.3185 48.4939 16.3362H48.4761ZM18.5178 37.3298C16.0345 37.3298 13.569 36.8854 11.2809 35.9611C9.09922 35.09 7.0949 33.7924 5.39211 32.157C3.7248 30.5393 2.3945 28.6017 1.47216 26.4686C-1.47224 19.6781 0.0886456 11.7678 5.40985 6.63049C7.11264 4.99509 9.09922 3.71521 11.2987 2.82641C13.6045 1.90205 16.0523 1.43987 18.5178 1.45765C20.3979 1.45765 22.2781 1.72429 24.0873 2.25757C25.8433 2.77308 27.5283 3.51967 29.0715 4.49736C30.5792 5.42172 31.9095 6.61271 33.0269 7.98147L28.1491 12.8166C26.9785 11.3234 25.4885 10.1146 23.8035 9.27913C22.1539 8.47921 20.3447 8.07036 18.5 8.08813C16.9923 8.08813 15.5201 8.37255 14.1366 8.95916C11.4583 10.0791 9.34754 12.23 8.26556 14.9319C7.69797 16.3718 7.41417 17.9005 7.43191 19.4471C7.43191 20.9758 7.69797 22.4868 8.26556 23.9089C8.81542 25.2598 9.63134 26.4686 10.6601 27.4996C11.6889 28.5129 12.9127 29.3128 14.2608 29.8638C17.3648 31.0904 20.8413 30.966 23.8744 29.5617C25.4885 28.7617 26.9253 27.6596 28.0959 26.2731L32.8141 30.9482C31.6966 32.2992 30.3663 33.4546 28.8941 34.3968C25.7723 36.3521 22.1894 37.3831 18.5178 37.3831V37.3298ZM164.674 36.8321H157.88V10.8968H164.691V13.0477C166.696 11.2701 169.285 10.3279 171.946 10.4168C173.808 10.3812 175.653 10.8257 177.285 11.7322C178.792 12.5855 180.034 13.8476 180.885 15.3586C181.772 17.0117 182.216 18.8782 182.18 20.7625V36.8321H175.369V21.7579C175.44 20.2825 174.926 18.8427 173.932 17.7583C172.886 16.7451 171.467 16.2118 170.012 16.2829C168.948 16.2829 167.884 16.4962 166.926 16.9584C166.039 17.4028 165.259 18.0605 164.691 18.8782V36.8499L164.674 36.8321ZM139.806 13.3854C137.482 13.2965 135.194 12.8699 133.012 12.1233C137.305 9.86574 142.431 9.84797 146.723 12.0878C144.506 12.8699 142.165 13.2965 139.824 13.4032L139.806 13.3854Z" fill="white"></path><path d="M301.571 42.1648C297.651 42.1648 294.476 38.9829 294.476 35.0544C294.476 31.1259 297.651 27.944 301.571 27.944C305.49 27.944 308.665 31.1259 308.665 35.0544C308.665 38.9829 305.49 42.1648 301.571 42.1648ZM301.571 31.4992C299.619 31.4992 298.023 33.099 298.023 35.0544C298.023 37.0098 299.619 38.6096 301.571 38.6096C303.522 38.6096 305.118 37.0098 305.118 35.0544C305.118 33.099 303.522 31.4992 301.571 31.4992Z" fill="#FFBC02"></path><path d="M308.133 21.438C308.027 22.0424 307.761 22.5935 307.371 23.0557C306.998 23.5001 306.501 23.8378 305.952 24.0156C305.384 24.2111 304.781 24.2467 304.196 24.1222C303.61 24.0156 303.06 23.7489 302.599 23.3578C302.156 22.9668 301.836 22.4868 301.641 21.9358C301.446 21.3669 301.411 20.7448 301.535 20.1581C301.624 19.6604 301.819 19.1805 302.103 18.7716C302.386 18.3628 302.741 18.0072 303.167 17.7406L304.054 18.9849C303.77 19.1449 303.539 19.3582 303.326 19.6071C303.149 19.8382 303.025 20.1226 302.972 20.407C302.901 20.7092 302.936 21.0292 303.043 21.3314C303.149 21.6158 303.344 21.8824 303.575 22.078C303.841 22.2913 304.142 22.4335 304.479 22.4868C304.799 22.5579 305.136 22.5401 305.455 22.4335C305.756 22.3446 306.022 22.1668 306.235 21.9358C306.448 21.7047 306.59 21.4025 306.643 21.0825C306.697 20.7981 306.697 20.5137 306.626 20.247C306.555 19.9626 306.413 19.6782 306.235 19.4293L307.477 18.6294C307.761 19.0205 307.974 19.4827 308.062 19.9626C308.169 20.4426 308.186 20.9581 308.08 21.438H308.133ZM309.375 15.0564C309.268 15.6608 309.002 16.2296 308.594 16.6918C308.222 17.1362 307.725 17.474 307.175 17.6873C306.608 17.9006 306.005 17.9361 305.419 17.8117C304.834 17.705 304.284 17.4384 303.823 17.0473C303.38 16.6563 303.06 16.1585 302.865 15.5897C302.67 15.0031 302.635 14.3809 302.759 13.7765C302.865 13.1721 303.131 12.6033 303.539 12.1411C303.912 11.6967 304.408 11.3412 304.958 11.1457C305.526 10.9501 306.129 10.8968 306.714 11.0212C307.3 11.1279 307.849 11.3945 308.293 11.7856C308.736 12.1767 309.056 12.6744 309.233 13.2432C309.428 13.8299 309.464 14.452 309.339 15.0564H309.375ZM307.92 14.772C307.991 14.452 307.974 14.1321 307.849 13.8299C307.743 13.5277 307.548 13.261 307.3 13.0655C307.051 12.8522 306.732 12.71 306.413 12.6389C306.093 12.5678 305.739 12.5855 305.419 12.6922C305.118 12.7988 304.852 12.9588 304.639 13.1899C304.426 13.421 304.266 13.7232 304.213 14.0432C304.142 14.3631 304.178 14.6831 304.284 14.9853C304.391 15.2875 304.586 15.5541 304.816 15.7497C305.065 15.963 305.384 16.1052 305.703 16.1585C306.023 16.2296 306.36 16.2119 306.679 16.1052C306.98 16.0163 307.264 15.8386 307.477 15.6075C307.69 15.3764 307.832 15.0742 307.885 14.7542L307.92 14.772ZM310.102 10.6124L303.752 9.36806L304.071 7.6971L304.55 7.78598C304.231 7.2527 304.125 6.61276 304.266 6.00837C304.337 5.6173 304.497 5.26178 304.728 4.94181C304.958 4.65739 305.242 4.4263 305.579 4.26632C305.331 3.96412 305.153 3.59083 305.047 3.19975C304.958 2.7909 304.941 2.38205 305.047 1.9732C305.118 1.5288 305.313 1.11995 305.615 0.764426C305.898 0.444456 306.271 0.213367 306.679 0.0889343C307.122 -0.0532745 307.601 -0.0710506 308.062 0.035606L312 0.799978L311.681 2.45316L307.991 1.74211C307.637 1.65323 307.264 1.70656 306.945 1.88432C306.661 2.06208 306.466 2.3465 306.413 2.68424C306.36 2.93311 306.377 3.18197 306.43 3.41306C306.501 3.64415 306.626 3.85747 306.803 4.03523H307.034C307.034 4.03523 307.193 4.07078 307.282 4.08856L311.22 4.85293L310.9 6.52388L307.211 5.81284C306.856 5.72396 306.484 5.77729 306.164 5.95505C305.881 6.13281 305.685 6.41722 305.632 6.75497C305.579 6.98606 305.579 7.23492 305.632 7.46601C305.685 7.6971 305.81 7.89264 305.969 8.05263L310.421 8.92365L310.102 10.6124Z" fill="white"></path><path d="M139.806 17.5095C133.864 14.8075 123.984 14.8964 123.984 8.2837C123.984 1.671 120.649 1.75988 120.649 1.75988C120.649 1.75988 125.421 -0.21327 127.425 5.63507C129.447 9.67024 135.478 10.0613 139.806 10.0613C144.134 10.0613 150.164 9.68802 152.186 5.63507C154.173 -0.21327 158.944 1.7421 158.944 1.7421C158.944 1.7421 155.627 1.65322 155.627 8.26593C155.627 14.8786 145.748 14.7898 139.806 17.4917V17.5095Z" fill="white"></path><path d="M209.691 36.832L217.087 1.99087H232.04C234.754 1.84866 237.432 2.64859 239.614 4.24844C241.459 5.70608 242.505 7.94586 242.416 10.2923C242.434 12.141 241.884 13.9542 240.838 15.5007C239.791 17.0472 238.355 18.3093 236.687 19.1626C237.911 19.8025 238.94 20.7447 239.685 21.9001C240.394 23.0555 240.767 24.371 240.749 25.7397C240.785 27.7662 240.164 29.7749 239.011 31.4459C237.805 33.1524 236.191 34.5211 234.293 35.4099C232.164 36.4054 229.841 36.9031 227.499 36.8498H209.673L209.691 36.832ZM221.114 16.2295H229.699C231.135 16.2829 232.537 15.8207 233.654 14.9141C234.683 14.0786 235.25 12.8165 235.215 11.5011C235.268 10.4878 234.843 9.52794 234.044 8.888C233.122 8.23028 232.022 7.91031 230.887 7.96364H222.834L221.096 16.2295H221.114ZM217.974 30.8593H227.659C228.741 30.877 229.823 30.6459 230.798 30.1838C231.65 29.7749 232.377 29.135 232.909 28.335C233.424 27.5351 233.69 26.6108 233.672 25.6686C233.725 24.5843 233.246 23.5355 232.413 22.86C231.401 22.1312 230.16 21.7579 228.918 21.8468H219.925L217.992 30.8593H217.974ZM252.686 37.2231C250.859 37.2764 249.068 36.7787 247.542 35.801C246.159 34.8766 245.112 33.5257 244.58 31.9436C244.013 30.1304 243.942 28.2106 244.385 26.3619L247.667 10.8789H254.318L251.179 25.722C250.753 27.144 251.001 28.6728 251.853 29.8816C252.757 30.9659 254.141 31.5525 255.56 31.4459C256.571 31.4459 257.582 31.2503 258.522 30.8237C259.444 30.3971 260.278 29.7927 260.987 29.0639L264.854 10.8967H271.506L266.007 36.832H259.356L259.746 34.9478C257.688 36.4409 255.223 37.2409 252.686 37.2409V37.2231ZM271.311 36.832L278.707 1.99087L285.66 0.497681L277.962 36.832H271.293H271.311ZM283.23 36.832L290.626 1.99087L297.58 0.497681L289.882 36.832H283.23Z" fill="#FFBC02"></path></g><defs><clipPath id="clip0_3_36"><rect width="312" height="47" fill="white"></rect></clipPath></defs></svg>